<svg xmlns="http://www.w3.org/2000/svg" version="1.1" xmlns:xlink="http://www.w3.org/1999/xlink" xmlns:svgjs="http://svgjs.dev/svgjs" width="1500" height="939" viewBox="0 0 1500 939"><g transform="matrix(1,0,0,1,-0.9090909090909918,-1.5145161290323017)"><svg viewBox="0 0 396 248" data-background-color="#ffffff" preserveAspectRatio="xMidYMid meet" height="939" width="1500" xmlns="http://www.w3.org/2000/svg" xmlns:xlink="http://www.w3.org/1999/xlink"><g id="tight-bounds" transform="matrix(1,0,0,1,0.2400000000000091,0.4000000000000057)"><svg viewBox="0 0 395.52 247.2" height="247.2" width="395.52"><g><svg></svg></g><g><svg viewBox="0 0 395.52 247.2" height="247.2" width="395.52"><g transform="matrix(1,0,0,1,75.54432,112.05465910931173)"><svg viewBox="0 0 244.43135999999998 23.09068178137652" height="23.09068178137652" width="244.43135999999998"><g><svg viewBox="0 0 244.43135999999998 23.09068178137652" height="23.09068178137652" width="244.43135999999998"><g><svg viewBox="0 0 244.43135999999998 23.09068178137652" height="23.09068178137652" width="244.43135999999998"><g id="textblocktransform"><svg viewBox="0 0 244.43135999999998 23.09068178137652" height="23.09068178137652" width="244.43135999999998" id="textblock"><g><svg viewBox="0 0 244.43135999999998 23.09068178137652" height="23.09068178137652" width="244.43135999999998"><g transform="matrix(1,0,0,1,0,0)"><svg width="244.43135999999998" viewBox="1.7999999999999998 -28 296.37 28" height="23.09068178137652" data-palette-color="#000000"><path d="M18.2-22Q18.2-20.85 18-20L18-20Q18.2-19.2 18.2-18L18.2-18Q18.2-16.85 18-16L18-16 16-16Q16.2-15.2 16.2-14L16.2-14Q16.2-12.85 16-12L16-12 6-12Q6.2-11.2 6.2-10L6.2-10Q6.2-8.85 6-8L6-8Q6.2-7.2 6.2-6L6.2-6Q6.2-4.85 6-4L6-4Q6.2-3.2 6.2-2L6.2-2Q6.2-0.85 6 0L6 0 2 0Q1.8-0.85 1.8-2L1.8-2Q1.8-3.2 2-4L2-4Q1.8-4.85 1.8-6L1.8-6Q1.8-7.2 2-8L2-8Q1.8-8.85 1.8-10L1.8-10Q1.8-11.2 2-12L2-12Q1.8-12.85 1.8-14L1.8-14Q1.8-15.2 2-16L2-16Q1.8-16.85 1.8-18L1.8-18Q1.8-19.2 2-20L2-20Q1.8-20.85 1.8-22L1.8-22Q1.8-23.2 2-24L2-24Q1.8-24.85 1.8-26L1.8-26Q1.8-27.2 2-28L2-28 16-28Q16.2-27.2 16.2-26L16.2-26Q16.2-24.85 16-24L16-24 18-24Q18.2-23.2 18.2-22L18.2-22ZM14-16Q13.8-16.85 13.8-18L13.8-18Q13.8-19.2 14-20L14-20Q13.8-20.85 13.8-22L13.8-22Q13.8-23.2 14-24L14-24 6-24Q6.2-23.2 6.2-22L6.2-22Q6.2-20.85 6-20L6-20Q6.2-19.2 6.2-18L6.2-18Q6.2-16.85 6-16L6-16 14-16ZM36.5-4L38-4Q38.2-3.2 38.2-2L38.2-2Q38.2-0.85 38 0L38 0 34 0Q33.8-0.85 33.8-2L33.8-2Q33.8-3.2 34-4L34-4 32.5-4Q32.3-4.85 32.3-6L32.3-6Q32.3-7.2 32.5-8L32.5-8 31-8Q30.8-8.85 30.8-10L30.8-10Q30.8-11.2 31-12L31-12 26-12Q26.2-11.2 26.2-10L26.2-10Q26.2-8.85 26-8L26-8Q26.2-7.2 26.2-6L26.2-6Q26.2-4.85 26-4L26-4Q26.2-3.2 26.2-2L26.2-2Q26.2-0.85 26 0L26 0 22 0Q21.8-0.85 21.8-2L21.8-2Q21.8-3.2 22-4L22-4Q21.8-4.85 21.8-6L21.8-6Q21.8-7.2 22-8L22-8Q21.8-8.85 21.8-10L21.8-10Q21.8-11.2 22-12L22-12Q21.8-12.85 21.8-14L21.8-14Q21.8-15.2 22-16L22-16Q21.8-16.85 21.8-18L21.8-18Q21.8-19.2 22-20L22-20Q21.8-20.85 21.8-22L21.8-22Q21.8-23.2 22-24L22-24Q21.8-24.85 21.8-26L21.8-26Q21.8-27.2 22-28L22-28 36-28Q36.2-27.2 36.2-26L36.2-26Q36.2-24.85 36-24L36-24 38-24Q38.2-23.2 38.2-22L38.2-22Q38.2-20.85 38-20L38-20 37-20Q37.2-19.2 37.2-18L37.2-18Q37.2-16.85 37-16L37-16 34-16Q34.2-15.2 34.2-14L34.2-14Q34.2-12.85 34-12L34-12 35-12Q35.2-11.2 35.2-10L35.2-10Q35.2-8.85 35-8L35-8 36.5-8Q36.7-7.2 36.7-6L36.7-6Q36.7-4.85 36.5-4L36.5-4ZM33-16Q32.8-16.85 32.8-18L32.8-18Q32.8-19.2 33-20L33-20Q32.8-20.85 32.8-22L32.8-22Q32.8-23.2 33-24L33-24 26-24Q26.2-23.2 26.2-22L26.2-22Q26.2-20.85 26-20L26-20Q26.2-19.2 26.2-18L26.2-18Q26.2-16.85 26-16L26-16 33-16ZM52-4L55-4Q55.2-3.2 55.2-2L55.2-2Q55.2-0.85 55 0L55 0 45 0Q44.8-0.85 44.8-2L44.8-2Q44.8-3.2 45-4L45-4 48-4Q47.8-4.85 47.8-6L47.8-6Q47.8-7.2 48-8L48-8Q47.8-8.85 47.8-10L47.8-10Q47.8-11.2 48-12L48-12Q47.8-12.85 47.8-14L47.8-14Q47.8-15.2 48-16L48-16Q47.8-16.85 47.8-18L47.8-18Q47.8-19.2 48-20L48-20Q47.8-20.85 47.8-22L47.8-22Q47.8-23.2 48-24L48-24 45-24Q44.8-24.85 44.8-26L44.8-26Q44.8-27.2 45-28L45-28 55-28Q55.2-27.2 55.2-26L55.2-26Q55.2-24.85 55-24L55-24 52-24Q52.2-23.2 52.2-22L52.2-22Q52.2-20.85 52-20L52-20Q52.2-19.2 52.2-18L52.2-18Q52.2-16.85 52-16L52-16Q52.2-15.2 52.2-14L52.2-14Q52.2-12.85 52-12L52-12Q52.2-11.2 52.2-10L52.2-10Q52.2-8.85 52-8L52-8Q52.2-7.2 52.2-6L52.2-6Q52.2-4.85 52-4L52-4ZM77.99-24Q78.19-23.2 78.19-22L78.19-22Q78.19-20.85 77.99-20L77.99-20Q78.19-19.2 78.19-18L78.19-18Q78.19-16.85 77.99-16L77.99-16 76.49-16Q76.69-15.2 76.69-14L76.69-14Q76.69-12.85 76.49-12L76.49-12 74.99-12Q75.19-11.2 75.19-10L75.19-10Q75.19-8.85 74.99-8L74.99-8 73.99-8Q74.19-7.2 74.19-6L74.19-6Q74.19-4.85 73.99-4L73.99-4 71.99-4Q72.19-3.2 72.19-2L72.19-2Q72.19-0.85 71.99 0L71.99 0 67.99 0Q67.79-0.85 67.79-2L67.79-2Q67.79-3.2 67.99-4L67.99-4 65.99-4Q65.79-4.85 65.79-6L65.79-6Q65.79-7.2 65.99-8L65.99-8 64.99-8Q64.79-8.85 64.79-10L64.79-10Q64.79-11.2 64.99-12L64.99-12 63.49-12Q63.29-12.85 63.29-14L63.29-14Q63.29-15.2 63.49-16L63.49-16 61.99-16Q61.79-16.85 61.79-18L61.79-18Q61.79-19.2 61.99-20L61.99-20Q61.79-20.85 61.79-22L61.79-22Q61.79-23.2 61.99-24L61.99-24Q61.79-24.85 61.79-26L61.79-26Q61.79-27.2 61.99-28L61.99-28 65.99-28Q66.19-27.2 66.19-26L66.19-26Q66.19-24.85 65.99-24L65.99-24Q66.19-23.2 66.19-22L66.19-22Q66.19-20.85 65.99-20L65.99-20Q66.19-19.2 66.19-18L66.19-18Q66.19-16.85 65.99-16L65.99-16 67.49-16Q67.69-15.2 67.69-14L67.69-14Q67.69-12.85 67.49-12L67.49-12 68.99-12Q69.19-11.2 69.19-10L69.19-10Q69.19-8.85 68.99-8L68.99-8 70.99-8Q70.79-8.85 70.79-10L70.79-10Q70.79-11.2 70.99-12L70.99-12 72.49-12Q72.29-12.85 72.29-14L72.29-14Q72.29-15.2 72.49-16L72.49-16 73.99-16Q73.79-16.85 73.79-18L73.79-18Q73.79-19.2 73.99-20L73.99-20Q73.79-20.85 73.79-22L73.79-22Q73.79-23.2 73.99-24L73.99-24Q73.79-24.85 73.79-26L73.79-26Q73.79-27.2 73.99-28L73.99-28 77.99-28Q78.19-27.2 78.19-26L78.19-26Q78.19-24.85 77.99-24L77.99-24ZM98.19-6Q98.19-4.85 97.99-4L97.99-4Q98.19-3.2 98.19-2L98.19-2Q98.19-0.85 97.99 0L97.99 0 93.99 0Q93.79-0.85 93.79-2L93.79-2Q93.79-3.2 93.99-4L93.99-4Q93.79-4.85 93.79-6L93.79-6Q93.79-7.2 93.99-8L93.99-8 85.99-8Q86.19-7.2 86.19-6L86.19-6Q86.19-4.85 85.99-4L85.99-4Q86.19-3.2 86.19-2L86.19-2Q86.19-0.85 85.99 0L85.99 0 81.99 0Q81.79-0.85 81.79-2L81.79-2Q81.79-3.2 81.99-4L81.99-4Q81.79-4.85 81.79-6L81.79-6Q81.79-7.2 81.99-8L81.99-8 83.49-8Q83.29-8.85 83.29-10L83.29-10Q83.29-11.2 83.49-12L83.49-12Q83.29-12.85 83.29-14L83.29-14Q83.29-15.2 83.49-16L83.49-16 84.49-16Q84.29-16.85 84.29-18L84.29-18Q84.29-19.2 84.49-20L84.49-20 85.99-20Q85.79-20.85 85.79-22L85.79-22Q85.79-23.2 85.99-24L85.99-24 86.99-24Q86.79-24.85 86.79-26L86.79-26Q86.79-27.2 86.99-28L86.99-28 92.99-28Q93.19-27.2 93.19-26L93.19-26Q93.19-24.85 92.99-24L92.99-24 93.99-24Q94.19-23.2 94.19-22L94.19-22Q94.19-20.85 93.99-20L93.99-20 95.49-20Q95.69-19.2 95.69-18L95.69-18Q95.69-16.85 95.49-16L95.49-16 96.49-16Q96.69-15.2 96.69-14L96.69-14Q96.69-12.85 96.49-12L96.49-12Q96.69-11.2 96.69-10L96.69-10Q96.69-8.85 96.49-8L96.49-8 97.99-8Q98.19-7.2 98.19-6L98.19-6ZM92.49-12Q92.29-12.85 92.29-14L92.29-14Q92.29-15.2 92.49-16L92.49-16 91.49-16Q91.29-16.85 91.29-18L91.29-18Q91.29-19.2 91.49-20L91.49-20 88.49-20Q88.69-19.2 88.69-18L88.69-18Q88.69-16.85 88.49-16L88.49-16 87.49-16Q87.69-15.2 87.69-14L87.69-14Q87.69-12.85 87.49-12L87.49-12 92.49-12ZM118.19-26Q118.19-24.85 117.99-24L117.99-24 111.99-24Q112.19-23.2 112.19-22L112.19-22Q112.19-20.85 111.99-20L111.99-20Q112.19-19.2 112.19-18L112.19-18Q112.19-16.85 111.99-16L111.99-16Q112.19-15.2 112.19-14L112.19-14Q112.19-12.85 111.99-12L111.99-12Q112.19-11.2 112.19-10L112.19-10Q112.19-8.85 111.99-8L111.99-8Q112.19-7.2 112.19-6L112.19-6Q112.19-4.85 111.99-4L111.99-4Q112.19-3.2 112.19-2L112.19-2Q112.19-0.85 111.99 0L111.99 0 107.99 0Q107.79-0.85 107.79-2L107.79-2Q107.79-3.2 107.99-4L107.99-4Q107.79-4.85 107.79-6L107.79-6Q107.79-7.2 107.99-8L107.99-8Q107.79-8.85 107.79-10L107.79-10Q107.79-11.2 107.99-12L107.99-12Q107.79-12.85 107.79-14L107.79-14Q107.79-15.2 107.99-16L107.99-16Q107.79-16.85 107.79-18L107.79-18Q107.79-19.2 107.99-20L107.99-20Q107.79-20.85 107.79-22L107.79-22Q107.79-23.2 107.99-24L107.99-24 101.99-24Q101.79-24.85 101.79-26L101.79-26Q101.79-27.2 101.99-28L101.99-28 117.99-28Q118.19-27.2 118.19-26L118.19-26ZM135.99-12L127.99-12Q128.19-11.2 128.19-10L128.19-10Q128.19-8.85 127.99-8L127.99-8Q128.19-7.2 128.19-6L128.19-6Q128.19-4.85 127.99-4L127.99-4 135.99-4Q136.19-3.2 136.19-2L136.19-2Q136.19-0.85 135.99 0L135.99 0 123.99 0Q123.79-0.85 123.79-2L123.79-2Q123.79-3.2 123.99-4L123.99-4Q123.79-4.85 123.79-6L123.79-6Q123.79-7.2 123.99-8L123.99-8Q123.79-8.85 123.79-10L123.79-10Q123.79-11.2 123.99-12L123.99-12Q123.79-12.85 123.79-14L123.79-14Q123.79-15.2 123.99-16L123.99-16Q123.79-16.85 123.79-18L123.79-18Q123.79-19.2 123.99-20L123.99-20Q123.79-20.85 123.79-22L123.79-22Q123.79-23.2 123.99-24L123.99-24Q123.79-24.85 123.79-26L123.79-26Q123.79-27.2 123.99-28L123.99-28 135.99-28Q136.19-27.2 136.19-26L136.19-26Q136.19-24.85 135.99-24L135.99-24 127.99-24Q128.19-23.2 128.19-22L128.19-22Q128.19-20.85 127.99-20L127.99-20Q128.19-19.2 128.19-18L128.19-18Q128.19-16.85 127.99-16L127.99-16 135.99-16Q136.19-15.2 136.19-14L136.19-14Q136.19-12.85 135.99-12L135.99-12ZM155.98-16Q156.18-15.2 156.18-14L156.18-14Q156.18-12.85 155.98-12L155.98-12 147.98-12Q148.18-11.2 148.18-10L148.18-10Q148.18-8.85 147.98-8L147.98-8Q148.18-7.2 148.18-6L148.18-6Q148.18-4.85 147.98-4L147.98-4Q148.18-3.2 148.18-2L148.18-2Q148.18-0.85 147.98 0L147.98 0 143.98 0Q143.78-0.85 143.78-2L143.78-2Q143.78-3.2 143.98-4L143.98-4Q143.78-4.85 143.78-6L143.78-6Q143.78-7.2 143.98-8L143.98-8Q143.78-8.85 143.78-10L143.78-10Q143.78-11.2 143.98-12L143.98-12Q143.78-12.85 143.78-14L143.78-14Q143.78-15.2 143.98-16L143.98-16Q143.78-16.85 143.78-18L143.78-18Q143.78-19.2 143.98-20L143.98-20Q143.78-20.85 143.78-22L143.78-22Q143.78-23.2 143.98-24L143.98-24Q143.78-24.85 143.78-26L143.78-26Q143.78-27.2 143.98-28L143.98-28 155.98-28Q156.18-27.2 156.18-26L156.18-26Q156.18-24.85 155.98-24L155.98-24 147.98-24Q148.18-23.2 148.18-22L148.18-22Q148.18-20.85 147.98-20L147.98-20Q148.18-19.2 148.18-18L148.18-18Q148.18-16.85 147.98-16L147.98-16 155.98-16ZM177.98-24Q178.18-23.2 178.18-22L178.18-22Q178.18-20.85 177.98-20L177.98-20Q178.18-19.2 178.18-18L178.18-18Q178.18-16.85 177.98-16L177.98-16Q178.18-15.2 178.18-14L178.18-14Q178.18-12.85 177.98-12L177.98-12Q178.18-11.2 178.18-10L178.18-10Q178.18-8.85 177.98-8L177.98-8Q178.18-7.2 178.18-6L178.18-6Q178.18-4.85 177.98-4L177.98-4 175.98-4Q176.18-3.2 176.18-2L176.18-2Q176.18-0.85 175.98 0L175.98 0 163.98 0Q163.78-0.85 163.78-2L163.78-2Q163.78-3.2 163.98-4L163.98-4 161.98-4Q161.78-4.85 161.78-6L161.78-6Q161.78-7.2 161.98-8L161.98-8Q161.78-8.85 161.78-10L161.78-10Q161.78-11.2 161.98-12L161.98-12Q161.78-12.85 161.78-14L161.78-14Q161.78-15.2 161.98-16L161.98-16Q161.78-16.85 161.78-18L161.78-18Q161.78-19.2 161.98-20L161.98-20Q161.78-20.85 161.78-22L161.78-22Q161.78-23.2 161.98-24L161.98-24Q161.78-24.85 161.78-26L161.78-26Q161.78-27.2 161.98-28L161.98-28 165.98-28Q166.18-27.2 166.18-26L166.18-26Q166.18-24.85 165.98-24L165.98-24Q166.18-23.2 166.18-22L166.18-22Q166.18-20.85 165.98-20L165.98-20Q166.18-19.2 166.18-18L166.18-18Q166.18-16.85 165.98-16L165.98-16Q166.18-15.2 166.18-14L166.18-14Q166.18-12.85 165.98-12L165.98-12Q166.18-11.2 166.18-10L166.18-10Q166.18-8.85 165.98-8L165.98-8Q166.18-7.2 166.18-6L166.18-6Q166.18-4.85 165.98-4L165.98-4 173.98-4Q173.78-4.85 173.78-6L173.78-6Q173.78-7.2 173.98-8L173.98-8Q173.78-8.85 173.78-10L173.78-10Q173.78-11.2 173.98-12L173.98-12Q173.78-12.85 173.78-14L173.78-14Q173.78-15.2 173.98-16L173.98-16Q173.78-16.85 173.78-18L173.78-18Q173.78-19.2 173.98-20L173.98-20Q173.78-20.85 173.78-22L173.78-22Q173.78-23.2 173.98-24L173.98-24Q173.78-24.85 173.78-26L173.78-26Q173.78-27.2 173.98-28L173.98-28 177.98-28Q178.18-27.2 178.18-26L178.18-26Q178.18-24.85 177.98-24L177.98-24ZM197.98-24Q198.18-23.2 198.18-22L198.18-22Q198.18-20.85 197.98-20L197.98-20Q198.18-19.2 198.18-18L198.18-18Q198.18-16.85 197.98-16L197.98-16Q198.18-15.2 198.18-14L198.18-14Q198.18-12.85 197.98-12L197.98-12Q198.18-11.2 198.18-10L198.18-10Q198.18-8.85 197.98-8L197.98-8Q198.18-7.2 198.18-6L198.18-6Q198.18-4.85 197.98-4L197.98-4Q198.18-3.2 198.18-2L198.18-2Q198.18-0.85 197.98 0L197.98 0 193.98 0Q193.78-0.85 193.78-2L193.78-2Q193.78-3.2 193.98-4L193.98-4 191.48-4Q191.28-4.85 191.28-6L191.28-6Q191.28-7.2 191.48-8L191.48-8 189.98-8Q189.78-8.85 189.78-10L189.78-10Q189.78-11.2 189.98-12L189.98-12 187.98-12Q187.78-12.85 187.78-14L187.78-14Q187.78-15.2 187.98-16L187.98-16 185.98-16Q186.18-15.2 186.18-14L186.18-14Q186.18-12.85 185.98-12L185.98-12Q186.18-11.2 186.18-10L186.18-10Q186.18-8.85 185.98-8L185.98-8Q186.18-7.2 186.18-6L186.18-6Q186.18-4.85 185.98-4L185.98-4Q186.18-3.2 186.18-2L186.18-2Q186.18-0.85 185.98 0L185.98 0 181.98 0Q181.78-0.85 181.78-2L181.78-2Q181.78-3.2 181.98-4L181.98-4Q181.78-4.85 181.78-6L181.78-6Q181.78-7.2 181.98-8L181.98-8Q181.78-8.85 181.78-10L181.78-10Q181.78-11.2 181.98-12L181.98-12Q181.78-12.85 181.78-14L181.78-14Q181.78-15.2 181.98-16L181.98-16Q181.78-16.85 181.78-18L181.78-18Q181.78-19.2 181.98-20L181.98-20Q181.78-20.85 181.78-22L181.78-22Q181.78-23.2 181.98-24L181.98-24Q181.78-24.85 181.78-26L181.78-26Q181.78-27.2 181.98-28L181.98-28 186.98-28Q187.18-27.2 187.18-26L187.18-26Q187.18-24.85 186.98-24L186.98-24 188.48-24Q188.68-23.2 188.68-22L188.68-22Q188.68-20.85 188.48-20L188.48-20 189.98-20Q190.18-19.2 190.18-18L190.18-18Q190.18-16.85 189.98-16L189.98-16 191.98-16Q192.18-15.2 192.18-14L192.18-14Q192.18-12.85 191.98-12L191.98-12 193.98-12Q193.78-12.85 193.78-14L193.78-14Q193.78-15.2 193.98-16L193.98-16Q193.78-16.85 193.78-18L193.78-18Q193.78-19.2 193.98-20L193.98-20Q193.78-20.85 193.78-22L193.78-22Q193.78-23.2 193.98-24L193.98-24Q193.78-24.85 193.78-26L193.78-26Q193.78-27.2 193.98-28L193.98-28 197.98-28Q198.18-27.2 198.18-26L198.18-26Q198.18-24.85 197.98-24L197.98-24ZM213.98-8L217.98-8Q218.18-7.2 218.18-6L218.18-6Q218.18-4.85 217.98-4L217.98-4 215.98-4Q216.18-3.2 216.18-2L216.18-2Q216.18-0.85 215.98 0L215.98 0 205.98 0Q205.78-0.85 205.78-2L205.78-2Q205.78-3.2 205.98-4L205.98-4 203.98-4Q203.78-4.85 203.78-6L203.78-6Q203.78-7.2 203.98-8L203.98-8 201.98-8Q201.78-8.85 201.78-10L201.78-10Q201.78-11.2 201.98-12L201.98-12Q201.78-12.85 201.78-14L201.78-14Q201.78-15.2 201.98-16L201.98-16Q201.78-16.85 201.78-18L201.78-18Q201.78-19.2 201.98-20L201.98-20 203.98-20Q203.78-20.85 203.78-22L203.78-22Q203.78-23.2 203.98-24L203.98-24 205.98-24Q205.78-24.85 205.78-26L205.78-26Q205.78-27.2 205.98-28L205.98-28 215.98-28Q216.18-27.2 216.18-26L216.18-26Q216.18-24.85 215.98-24L215.98-24 217.98-24Q218.18-23.2 218.18-22L218.18-22Q218.18-20.85 217.98-20L217.98-20 213.98-20Q213.78-20.85 213.78-22L213.78-22Q213.78-23.2 213.98-24L213.98-24 207.98-24Q208.18-23.2 208.18-22L208.18-22Q208.18-20.85 207.98-20L207.98-20 205.98-20Q206.18-19.2 206.18-18L206.18-18Q206.18-16.85 205.98-16L205.98-16Q206.18-15.2 206.18-14L206.18-14Q206.18-12.85 205.98-12L205.98-12Q206.18-11.2 206.18-10L206.18-10Q206.18-8.85 205.98-8L205.98-8 207.98-8Q208.18-7.2 208.18-6L208.18-6Q208.18-4.85 207.98-4L207.98-4 213.98-4Q213.78-4.85 213.78-6L213.78-6Q213.78-7.2 213.98-8L213.98-8ZM238.17-26Q238.17-24.85 237.97-24L237.97-24 231.97-24Q232.17-23.2 232.17-22L232.17-22Q232.17-20.85 231.97-20L231.97-20Q232.17-19.2 232.17-18L232.17-18Q232.17-16.85 231.97-16L231.97-16Q232.17-15.2 232.17-14L232.17-14Q232.17-12.85 231.97-12L231.97-12Q232.17-11.2 232.17-10L232.17-10Q232.17-8.85 231.97-8L231.97-8Q232.17-7.2 232.17-6L232.17-6Q232.17-4.85 231.97-4L231.97-4Q232.17-3.2 232.17-2L232.17-2Q232.17-0.85 231.97 0L231.97 0 227.97 0Q227.77-0.85 227.77-2L227.77-2Q227.77-3.2 227.97-4L227.97-4Q227.77-4.85 227.77-6L227.77-6Q227.77-7.2 227.97-8L227.97-8Q227.77-8.85 227.77-10L227.77-10Q227.77-11.2 227.97-12L227.97-12Q227.77-12.85 227.77-14L227.77-14Q227.77-15.2 227.97-16L227.97-16Q227.77-16.85 227.77-18L227.77-18Q227.77-19.2 227.97-20L227.97-20Q227.77-20.85 227.77-22L227.77-22Q227.77-23.2 227.97-24L227.97-24 221.97-24Q221.77-24.85 221.77-26L221.77-26Q221.77-27.2 221.97-28L221.97-28 237.97-28Q238.17-27.2 238.17-26L238.17-26ZM251.97-4L254.97-4Q255.17-3.2 255.17-2L255.17-2Q255.17-0.85 254.97 0L254.97 0 244.97 0Q244.77-0.85 244.77-2L244.77-2Q244.77-3.2 244.97-4L244.97-4 247.97-4Q247.77-4.85 247.77-6L247.77-6Q247.77-7.2 247.97-8L247.97-8Q247.77-8.85 247.77-10L247.77-10Q247.77-11.2 247.97-12L247.97-12Q247.77-12.85 247.77-14L247.77-14Q247.77-15.2 247.97-16L247.97-16Q247.77-16.85 247.77-18L247.77-18Q247.77-19.2 247.97-20L247.97-20Q247.77-20.85 247.77-22L247.77-22Q247.77-23.2 247.97-24L247.97-24 244.97-24Q244.77-24.85 244.77-26L244.77-26Q244.77-27.2 244.97-28L244.97-28 254.97-28Q255.17-27.2 255.17-26L255.17-26Q255.17-24.85 254.97-24L254.97-24 251.97-24Q252.17-23.2 252.17-22L252.17-22Q252.17-20.85 251.97-20L251.97-20Q252.17-19.2 252.17-18L252.17-18Q252.17-16.85 251.97-16L251.97-16Q252.17-15.2 252.17-14L252.17-14Q252.17-12.85 251.97-12L251.97-12Q252.17-11.2 252.17-10L252.17-10Q252.17-8.85 251.97-8L251.97-8Q252.17-7.2 252.17-6L252.17-6Q252.17-4.85 251.97-4L251.97-4ZM277.97-16Q278.17-15.2 278.17-14L278.17-14Q278.17-12.85 277.97-12L277.97-12Q278.17-11.2 278.17-10L278.17-10Q278.17-8.85 277.97-8L277.97-8 276.47-8Q276.67-7.2 276.67-6L276.67-6Q276.67-4.85 276.47-4L276.47-4 273.97-4Q274.17-3.2 274.17-2L274.17-2Q274.17-0.85 273.97 0L273.97 0 265.97 0Q265.77-0.85 265.77-2L265.77-2Q265.77-3.2 265.97-4L265.97-4 263.47-4Q263.27-4.85 263.27-6L263.27-6Q263.27-7.2 263.47-8L263.47-8 261.97-8Q261.77-8.85 261.77-10L261.77-10Q261.77-11.2 261.97-12L261.97-12Q261.77-12.85 261.77-14L261.77-14Q261.77-15.2 261.97-16L261.97-16Q261.77-16.85 261.77-18L261.77-18Q261.77-19.2 261.97-20L261.97-20 263.47-20Q263.27-20.85 263.27-22L263.27-22Q263.27-23.2 263.47-24L263.47-24 265.97-24Q265.77-24.85 265.77-26L265.77-26Q265.77-27.2 265.97-28L265.97-28 273.97-28Q274.17-27.2 274.17-26L274.17-26Q274.17-24.85 273.97-24L273.97-24 276.47-24Q276.67-23.2 276.67-22L276.67-22Q276.67-20.85 276.47-20L276.47-20 277.97-20Q278.17-19.2 278.17-18L278.17-18Q278.17-16.85 277.97-16L277.97-16ZM273.97-8Q273.77-8.85 273.77-10L273.77-10Q273.77-11.2 273.97-12L273.97-12Q273.77-12.85 273.77-14L273.77-14Q273.77-15.2 273.97-16L273.97-16Q273.77-16.85 273.77-18L273.77-18Q273.77-19.2 273.97-20L273.97-20 272.47-20Q272.27-20.85 272.27-22L272.27-22Q272.27-23.2 272.47-24L272.47-24 267.47-24Q267.67-23.2 267.67-22L267.67-22Q267.67-20.85 267.47-20L267.47-20 265.97-20Q266.17-19.2 266.17-18L266.17-18Q266.17-16.85 265.97-16L265.97-16Q266.17-15.2 266.17-14L266.17-14Q266.17-12.85 265.97-12L265.97-12Q266.17-11.2 266.17-10L266.17-10Q266.17-8.85 265.97-8L265.97-8 267.47-8Q267.67-7.2 267.67-6L267.67-6Q267.67-4.85 267.47-4L267.47-4 272.47-4Q272.27-4.85 272.27-6L272.27-6Q272.27-7.2 272.47-8L272.47-8 273.97-8ZM297.97-24Q298.17-23.2 298.17-22L298.17-22Q298.17-20.85 297.97-20L297.97-20Q298.17-19.2 298.17-18L298.17-18Q298.17-16.85 297.97-16L297.97-16Q298.17-15.2 298.17-14L298.17-14Q298.17-12.85 297.97-12L297.97-12Q298.17-11.2 298.17-10L298.17-10Q298.17-8.85 297.97-8L297.97-8Q298.17-7.2 298.17-6L298.17-6Q298.17-4.85 297.97-4L297.97-4Q298.17-3.2 298.17-2L298.17-2Q298.17-0.85 297.97 0L297.97 0 293.97 0Q293.77-0.85 293.77-2L293.77-2Q293.77-3.2 293.97-4L293.97-4 291.47-4Q291.27-4.85 291.27-6L291.27-6Q291.27-7.2 291.47-8L291.47-8 289.97-8Q289.77-8.85 289.77-10L289.77-10Q289.77-11.2 289.97-12L289.97-12 287.97-12Q287.77-12.85 287.77-14L287.77-14Q287.77-15.2 287.97-16L287.97-16 285.97-16Q286.17-15.2 286.17-14L286.17-14Q286.17-12.85 285.97-12L285.97-12Q286.17-11.2 286.17-10L286.17-10Q286.17-8.85 285.97-8L285.97-8Q286.17-7.2 286.17-6L286.17-6Q286.17-4.85 285.97-4L285.97-4Q286.17-3.2 286.17-2L286.17-2Q286.17-0.85 285.97 0L285.97 0 281.97 0Q281.77-0.85 281.77-2L281.77-2Q281.77-3.2 281.97-4L281.97-4Q281.77-4.85 281.77-6L281.77-6Q281.77-7.2 281.97-8L281.97-8Q281.77-8.85 281.77-10L281.77-10Q281.77-11.2 281.97-12L281.97-12Q281.77-12.85 281.77-14L281.77-14Q281.77-15.2 281.97-16L281.97-16Q281.77-16.85 281.77-18L281.77-18Q281.77-19.2 281.97-20L281.97-20Q281.77-20.85 281.77-22L281.77-22Q281.77-23.2 281.97-24L281.97-24Q281.77-24.85 281.77-26L281.77-26Q281.77-27.2 281.97-28L281.97-28 286.97-28Q287.17-27.2 287.17-26L287.17-26Q287.17-24.85 286.97-24L286.97-24 288.47-24Q288.67-23.2 288.67-22L288.67-22Q288.67-20.85 288.47-20L288.47-20 289.97-20Q290.17-19.2 290.17-18L290.17-18Q290.17-16.85 289.97-16L289.97-16 291.97-16Q292.17-15.2 292.17-14L292.17-14Q292.17-12.85 291.97-12L291.97-12 293.97-12Q293.77-12.85 293.77-14L293.77-14Q293.77-15.2 293.97-16L293.97-16Q293.77-16.85 293.77-18L293.77-18Q293.77-19.2 293.97-20L293.97-20Q293.77-20.85 293.77-22L293.77-22Q293.77-23.2 293.97-24L293.97-24Q293.77-24.85 293.77-26L293.77-26Q293.77-27.2 293.97-28L293.97-28 297.97-28Q298.17-27.2 298.17-26L298.17-26Q298.17-24.85 297.97-24L297.97-24Z" opacity="1" transform="matrix(1,0,0,1,0,0)" fill="#000000" class="wordmark-text-0" data-fill-palette-color="primary" id="text-0"></path></svg></g></svg></g></svg></g></svg></g></svg></g></svg></g><path d="M170.22 106.055L170.22 40.675 4.37 40.675 4.37 206.525 170.22 206.525 170.22 141.145 168.137 141.145 168.137 204.443 6.452 204.443 6.452 42.757 168.137 42.757 168.137 106.055Z" fill="#000000" stroke="transparent" data-fill-palette-color="tertiary"></path></svg></g><defs></defs></svg><rect width="395.52" height="247.2" fill="none" stroke="none" visibility="hidden"></rect></g></svg></g></svg>