<?xml version="1.0" encoding="UTF-8"?>
<svg version="1.1" xmlns="http://www.w3.org/2000/svg" width="48" height="48">
<path d="M0 0 C15.84 0 31.68 0 48 0 C48 15.84 48 31.68 48 48 C32.16 48 16.32 48 0 48 C0 32.16 0 16.32 0 0 Z " fill="#FEFEFE" transform="translate(0,0)"/>
<path d="M0 0 C4.62 0 9.24 0 14 0 C14 1.98 14 3.96 14 6 C17.96 6 21.92 6 26 6 C26 6.66 26 7.32 26 8 C20.06 8.495 20.06 8.495 14 9 C14 10.65 14 12.3 14 14 C9.38 14 4.76 14 0 14 C0 9.38 0 4.76 0 0 Z " fill="#FDFDFD" transform="translate(8,17)"/>
<path d="M0 0 C4.62 0 9.24 0 14 0 C14 1.98 14 3.96 14 6 C17.96 6 21.92 6 26 6 C26 6.66 26 7.32 26 8 C19.4 8 12.8 8 6 8 C6 7.34 6 6.68 6 6 C8.31 6 10.62 6 13 6 C13 4.35 13 2.7 13 1 C9.04 1 5.08 1 1 1 C1 4.96 1 8.92 1 13 C4.96 13 8.92 13 13 13 C13.33 11.68 13.66 10.36 14 9 C14 10.65 14 12.3 14 14 C9.38 14 4.76 14 0 14 C0 9.38 0 4.76 0 0 Z " fill="#C4C4C4" transform="translate(8,17)"/>
</svg>
