<?xml version="1.0" standalone="no"?>
<!DOCTYPE svg PUBLIC "-//W3C//DTD SVG 20010904//EN"
 "http://www.w3.org/TR/2001/REC-SVG-20010904/DTD/svg10.dtd">
<svg version="1.0" xmlns="http://www.w3.org/2000/svg"
 width="1500.000000pt" height="1500.000000pt" viewBox="0 0 1500.000000 1500.000000"
 preserveAspectRatio="xMidYMid meet">
<metadata>
Created by potrace 1.14, written by Peter Selinger 2001-2017
</metadata>
<g transform="translate(0.000000,1500.000000) scale(0.100000,-0.100000)"
fill="#000000" stroke="none">
<path d="M2620 7500 l0 -2090 2090 0 2090 0 0 826 0 825 -22 -3 -23 -3 -3
-797 -2 -798 -2040 0 -2040 0 0 2040 0 2040 2040 0 2040 0 2 -797 3 -798 23
-3 22 -3 0 825 0 826 -2090 0 -2090 0 0 -2090z"/>
<path d="M4420 7500 l0 -290 39 0 c49 0 49 2 47 143 l-1 107 103 0 102 0 0 40
c0 33 3 40 20 40 22 0 28 20 28 85 0 65 -6 85 -28 85 -17 0 -20 7 -20 40 l0
40 -145 0 -145 0 0 -290z m250 125 l0 -85 -82 0 -83 0 0 85 0 85 83 0 82 0 0
-85z"/>
<path d="M4835 7778 c-2 -7 -3 -137 -2 -288 l2 -275 43 -3 42 -3 0 125 0 126
50 0 50 0 0 -40 c0 -29 4 -40 15 -40 11 0 15 -11 15 -40 0 -29 5 -43 18 -48
11 -5 17 -18 17 -42 0 -34 1 -35 43 -38 l42 -3 0 40 c0 30 -4 41 -15 41 -11 0
-15 11 -15 40 0 29 -4 40 -15 40 -11 0 -15 12 -15 45 0 25 -4 45 -10 45 -5 0
-10 18 -10 40 0 38 2 40 30 40 29 0 30 2 30 45 0 25 5 45 10 45 6 0 10 18 10
40 0 33 -3 40 -20 40 -17 0 -20 7 -20 40 l0 40 -145 0 c-108 0 -147 -3 -150
-12z m225 -153 l0 -85 -70 0 -70 0 0 85 0 85 70 0 70 0 0 -85z"/>
<path d="M5310 7750 c0 -38 1 -40 33 -40 l32 0 0 -210 0 -210 -32 0 c-32 0
-33 -2 -33 -40 l0 -40 104 0 c96 0 105 2 111 20 11 35 -3 60 -36 60 l-29 0 0
210 0 210 29 0 c33 0 47 25 36 60 -6 18 -15 20 -111 20 l-104 0 0 -40z"/>
<path d="M5669 7773 c-1 -18 0 -183 0 -215 1 -10 8 -18 16 -18 11 0 15 -11 15
-40 0 -29 4 -40 15 -40 11 0 15 -11 15 -40 0 -22 5 -40 10 -40 6 0 10 -20 10
-45 0 -38 3 -45 20 -45 17 0 20 -7 20 -40 l0 -40 45 0 45 0 0 40 c0 33 3 40
20 40 17 0 20 7 20 45 0 25 5 45 10 45 6 0 10 18 10 40 0 29 4 40 15 40 11 0
15 11 15 40 0 29 4 40 15 40 13 0 15 21 15 125 l0 125 -40 0 c-31 0 -40 -4
-41 -17 -1 -10 -1 -66 -1 -125 -1 -97 -3 -107 -21 -112 -16 -4 -19 -11 -15
-40 3 -27 0 -36 -14 -39 -14 -4 -18 -15 -18 -46 0 -30 -4 -41 -15 -41 -11 0
-15 11 -15 41 0 33 -4 42 -20 46 -15 4 -19 11 -15 24 9 26 -3 59 -21 59 -12 0
-15 13 -14 63 1 34 1 90 1 125 l-1 62 -40 0 c-31 0 -40 -4 -41 -17z"/>
<path d="M6190 7751 c0 -21 -5 -41 -12 -43 -6 -2 -12 -21 -12 -41 -1 -23 -9
-42 -20 -50 -15 -11 -18 -21 -13 -45 4 -22 2 -32 -9 -36 -11 -4 -15 -17 -13
-44 4 -82 -1 -122 -16 -122 -12 0 -15 -16 -15 -80 l0 -80 45 0 45 0 0 85 0 85
80 0 80 0 0 -85 0 -85 45 0 45 0 0 80 c0 64 -3 80 -15 80 -12 0 -15 16 -15 85
0 50 -4 85 -10 85 -5 0 -10 18 -10 40 0 29 -4 40 -15 40 -11 0 -15 11 -15 40
0 21 -6 43 -12 47 -7 4 -13 24 -13 43 l0 35 -62 3 -63 3 0 -40z m90 -166 c0
-25 5 -45 10 -45 6 0 10 -18 10 -40 l0 -40 -50 0 -50 0 0 40 c0 22 5 40 10 40
6 0 10 20 10 45 0 43 1 45 30 45 29 0 30 -2 30 -45z"/>
<path d="M6500 7750 l0 -40 60 0 60 0 1 -42 c0 -24 1 -135 2 -248 l2 -205 43
-3 42 -3 0 250 0 250 63 3 62 3 0 35 0 35 -167 3 -168 2 0 -40z"/>
<path d="M6960 7500 l0 -290 125 0 125 0 0 40 0 40 -83 0 -83 0 0 85 0 85 83
0 83 0 0 40 0 40 -83 0 -83 0 0 85 0 85 83 0 83 0 0 40 0 40 -125 0 -125 0 0
-290z"/>
<path d="M7371 7500 l1 -290 44 0 44 0 0 125 0 125 85 0 85 0 0 40 0 40 -85 0
-85 0 0 85 0 85 85 0 85 0 0 40 0 40 -130 0 -129 0 0 -290z"/>
<path d="M7750 7541 c0 -244 1 -251 20 -251 17 0 20 -7 20 -40 l0 -40 125 0
125 0 0 40 c0 33 3 40 19 40 11 0 22 8 24 18 4 14 2 453 -2 475 0 4 -19 7 -41
7 l-40 0 0 -250 0 -250 -82 0 -83 0 0 247 0 248 -42 3 -43 3 0 -250z"/>
<path d="M8165 7778 c-2 -7 -3 -137 -2 -288 l2 -275 43 -3 42 -3 0 165 c0 159
1 166 20 166 17 0 20 -7 20 -40 0 -33 3 -40 20 -40 17 0 20 -7 20 -40 0 -28 4
-40 14 -40 10 0 16 -14 18 -42 3 -37 7 -44 28 -48 21 -4 25 -11 25 -40 0 -34
1 -35 43 -38 l42 -3 0 291 0 291 -42 -3 -43 -3 0 -163 c0 -155 -1 -162 -20
-162 -16 0 -20 7 -20 37 0 31 -4 39 -22 41 -19 3 -21 8 -16 38 5 30 3 36 -16
41 -17 4 -21 13 -21 49 0 32 -4 44 -15 44 -11 0 -15 11 -15 40 l0 40 -50 0
c-32 0 -52 -5 -55 -12z"/>
<path d="M8664 7775 c-4 -8 -4 -26 -2 -40 4 -19 0 -25 -16 -27 -17 -2 -22 -11
-24 -45 -3 -35 -7 -43 -23 -43 -18 0 -19 -8 -19 -120 0 -112 1 -120 19 -120
16 0 20 -8 23 -42 2 -32 8 -43 23 -48 15 -4 20 -13 20 -40 l0 -35 105 0 105 0
0 35 c0 27 5 36 20 40 15 4 21 16 23 43 l3 37 -45 0 -46 0 0 -40 0 -40 -60 0
-60 0 0 40 c0 33 -3 40 -20 40 -19 0 -20 7 -20 130 0 123 1 130 20 130 17 0
20 7 20 40 l0 40 60 0 60 0 0 -40 0 -40 46 0 45 0 -3 37 c-2 27 -8 39 -23 43
-15 4 -20 13 -20 40 l0 35 -103 3 c-85 2 -103 0 -108 -13z"/>
<path d="M9000 7750 l0 -40 60 0 60 0 0 -250 0 -250 45 0 45 0 0 250 0 250 60
0 60 0 0 40 0 40 -165 0 -165 0 0 -40z"/>
<path d="M9475 7770 c-11 -35 3 -60 36 -60 l29 0 0 -210 0 -210 -30 0 c-34 0
-45 -17 -36 -55 6 -25 8 -25 111 -25 l105 0 0 40 c0 38 -1 40 -32 40 l-33 0 0
210 0 210 33 0 c31 0 32 2 32 40 l0 40 -104 0 c-96 0 -105 -2 -111 -20z"/>
<path d="M9910 7750 c0 -36 -2 -40 -25 -40 -23 0 -25 -4 -25 -45 0 -33 -4 -45
-15 -45 -12 0 -15 -20 -15 -120 0 -100 3 -120 15 -120 11 0 15 -12 15 -45 0
-41 2 -45 25 -45 23 0 25 -4 25 -40 l0 -40 85 0 85 0 0 40 c0 36 3 40 25 40
26 0 43 35 31 66 -4 10 0 18 13 21 17 4 19 15 19 123 0 108 -2 119 -19 123
-13 3 -17 11 -13 21 12 31 -5 66 -31 66 -22 0 -25 4 -25 40 l0 40 -85 0 -85 0
0 -40z m140 -80 c0 -29 4 -40 15 -40 13 0 15 -21 15 -130 0 -109 -2 -130 -15
-130 -11 0 -15 -11 -15 -40 l0 -40 -50 0 -50 0 0 40 c0 29 -4 40 -15 40 -15 0
-17 13 -17 130 0 117 2 130 17 130 11 0 15 11 15 40 l0 40 50 0 50 0 0 -40z"/>
<path d="M10249 7778 c-4 -35 -6 -535 -2 -550 3 -13 15 -18 44 -18 l39 0 0
165 c0 158 1 165 20 165 17 0 20 -7 20 -40 0 -33 3 -40 20 -40 17 0 20 -7 20
-40 0 -28 4 -40 14 -40 10 0 16 -14 18 -42 3 -38 6 -43 30 -46 19 -2 25 -8 21
-18 -3 -8 -2 -25 1 -39 5 -21 12 -25 46 -25 l40 0 0 290 0 290 -39 0 c-29 0
-41 -5 -44 -17 -3 -10 -4 -84 -3 -165 1 -135 0 -148 -16 -148 -14 0 -18 8 -18
40 0 35 -3 40 -23 40 -20 0 -23 4 -19 34 3 27 -1 37 -17 45 -12 7 -18 17 -15
26 9 23 -5 65 -21 65 -11 0 -15 11 -15 40 l0 40 -50 0 c-33 0 -51 -4 -51 -12z"/>
</g>
</svg>
